<?xml version="1.0" encoding="UTF-8" standalone="no"?>
<!-- Created with Inkscape (http://www.inkscape.org/) -->

<svg
   width="746.79999"
   height="117.4"
   viewBox="0 0 197.59083 31.062084"
   version="1.1"
   id="svg1"
   xml:space="preserve"
   inkscape:version="1.3 (0e150ed, 2023-07-21)"
   sodipodi:docname="Wingmen.svg"
   xmlns:inkscape="http://www.inkscape.org/namespaces/inkscape"
   xmlns:sodipodi="http://sodipodi.sourceforge.net/DTD/sodipodi-0.dtd"
   xmlns="http://www.w3.org/2000/svg"
   xmlns:svg="http://www.w3.org/2000/svg"><sodipodi:namedview
     id="namedview1"
     pagecolor="#ffffff"
     bordercolor="#000000"
     borderopacity="0.25"
     inkscape:showpageshadow="2"
     inkscape:pageopacity="0.0"
     inkscape:pagecheckerboard="0"
     inkscape:deskcolor="#d1d1d1"
     inkscape:document-units="mm"
     inkscape:zoom="0.2973261"
     inkscape:cx="559.9912"
     inkscape:cy="275.79146"
     inkscape:window-width="1472"
     inkscape:window-height="833"
     inkscape:window-x="0"
     inkscape:window-y="37"
     inkscape:window-maximized="0"
     inkscape:current-layer="g2" /><defs
     id="defs1"><linearGradient
       id="swatch2"
       inkscape:swatch="solid"><stop
         style="stop-color:#ffffff;stop-opacity:1;"
         offset="0"
         id="stop2" /></linearGradient></defs><g
     inkscape:label="Layer 1"
     inkscape:groupmode="layer"
     id="layer1"><g
       id="g2"
       style="fill:#212121;fill-opacity:1"
       transform="translate(20.49124,-211.62364)"><g
         id="g1"
         transform="matrix(0.14948067,0,0,0.14948067,-20.49124,211.62364)"
         style="fill:#212121;fill-opacity:1;stroke-width:1.77002" /><path
         class="st0"
         d="m 151.59376,242.02425 h 7.22312 v -13.89063 c 0,-1.03187 -0.0794,-4.86833 -0.0794,-4.86833 h 0.0794 c 0,0 1.61396,3.20146 2.11667,3.99521 l 8.75771,14.76375 h 7.40833 V 212.2057 h -7.22312 v 14.12875 c 0,1.03188 0.0794,4.63021 0.0794,4.63021 h -0.0794 c 0,0 -1.5875,-2.96333 -2.03729,-3.78354 l -8.83709,-14.97542 h -7.40833 z m -26.035,0 h 22.86 v -6.27063 h -15.47813 v -6.37646 h 13.04396 v -5.74146 h -13.04396 v -5.34458 h 15.21355 v -6.08542 h -22.59542 z m -34.607504,0 h 6.64104 v -14.97542 c 0,-1.21708 -0.13229,-6.00604 -0.13229,-6.00604 h 0.0794 c 0,0 1.03188,4.49791 1.37584,5.58271 l 4.259794,15.37229 h 6.08542 l 4.28625,-15.42521 c 0.34395,-1.08479 1.37583,-5.55625 1.37583,-5.55625 h 0.0794 c 0,0 -0.13229,4.7625 -0.13229,5.95312 v 15.00188 h 6.74688 V 212.2057 h -10.00131 l -3.67771,13.04396 c -0.50271,1.87854 -1.66688,6.79979 -1.66688,6.79979 h -0.0794 c 0,0 -1.16417,-4.92125 -1.71979,-6.79979 l -3.57185,-13.04396 h -9.921874 z m -17.54187,0.66145 c 3.59833,0 6.50874,-1.21708 8.46666,-4.25979 h 0.0794 l 0.42333,3.59834 h 5.15937 v -16.0073 h -12.43543 v 2.56646 l 5.58271,2.8575 v 0.0794 c -0.29105,2.61938 -2.59292,5.21229 -6.45583,5.21229 -4.65667,0 -7.51417,-4.04812 -7.51417,-9.49854 0,-5.42396 2.46063,-9.49854 7.38187,-9.49854 3.25438,0 5.26521,1.82563 5.79438,4.25979 h 7.1702 c -0.92604,-6.29709 -5.52979,-10.37167 -13.2027,-10.37167 -4.28625,0 -7.75229,1.45521 -10.21292,3.96875 -2.83104,2.83104 -4.41854,6.95854 -4.41854,11.64167 0,4.55083 1.42875,8.46666 3.99521,11.29771 2.46063,2.64583 5.92667,4.15395 10.18646,4.15395 m -42.439168,-0.66145 h 7.223125 v -13.89063 c 0,-1.03187 -0.07938,-4.86833 -0.07938,-4.86833 h 0.07938 c 0,0 1.613959,3.20146 2.116667,3.99521 l 8.757708,14.76375 h 7.434788 V 212.2057 h -7.223121 v 14.12875 c 0,1.03188 0.07937,4.63021 0.07937,4.63021 h -0.07937 c 0,0 -1.5875,-2.96333 -2.037292,-3.78354 L 38.378552,212.2057 h -7.408334 z m -10.345208,0 h 7.381875 V 212.2057 H 20.62501 Z m -32.940625,0 h 7.249583 l 3.122084,-14.31396 c 0.502708,-2.38125 1.005416,-5.55625 1.005416,-5.55625 h 0.07938 c 0,0 0.502709,3.175 1.031875,5.55625 l 3.148537,14.31396 h 7.223125 l 8.149167,-29.81855 H 11.25876 l -2.963333,12.43542 c -0.661459,2.96333 -1.508125,7.46125 -1.508125,7.46125 h -0.07938 c 0,0 -0.740834,-4.1275 -1.42875,-7.17021 L 2.52751,212.2057 h -6.852708 l -2.778125,12.80584 c -0.661459,2.98979 -1.455209,7.09083 -1.455209,7.09083 h -0.07938 c 0,0 -0.714375,-4.49792 -1.375833,-7.38187 l -3.016245,-12.5148 h -7.46125 z"
         id="path1-4"
         style="fill:#ffffff;fill-opacity:1;stroke-width:0.264583" /></g></g><style
     type="text/css"
     id="style1">&#10;	.st0{fill:#212121;}&#10;</style><style
     type="text/css"
     id="style1-3">&#10;	.st0{fill:#212121;}&#10;</style><style
     type="text/css"
     id="style1-2">&#10;	.st0{fill:#FFFFFF;}&#10;</style></svg>
