<?xml version="1.0" encoding="utf-8"?>
<!-- Generator: Adobe Illustrator 27.5.0, SVG Export Plug-In . SVG Version: 6.00 Build 0)  -->
<svg version="1.1" id="Layer_1" xmlns="http://www.w3.org/2000/svg" xmlns:xlink="http://www.w3.org/1999/xlink" x="0px" y="0px"
	 viewBox="0 0 242.3 207.8" style="enable-background:new 0 0 242.3 207.8;" xml:space="preserve">
<style type="text/css">
	.st0{fill:#212121;}
</style>
<path class="st0" d="M127.6,207.8v-77.7c0,0-4.2-30.8,38-66c42.2-35.2,76.7-64,76.7-64v33.5c0,0-46.3,96.5-49.9,106.8
	c-2,5.7-5.4,11.8-11,16.5C169.2,166.9,127.6,207.8,127.6,207.8"/>
<path class="st0" d="M114.7,207.8v-77.7c0,0,4.2-30.8-38-66S0,0,0,0v33.5c0,0,46.3,96.5,49.9,106.8c2,5.7,5.4,11.8,11,16.5
	C73,166.9,114.7,207.8,114.7,207.8"/>
</svg>
